<svg xmlns="http://www.w3.org/2000/svg" width="118.808" height="24.701" viewBox="0 0 118.808 24.701">
  <g id="Group_2651" transform="translate(-287.915 -239.982)">
    <g id="Group_2650" transform="translate(287.915 239.982)">
      <g id="Group_2644" transform="translate(0 0)">
        <g id="Group_2636" transform="translate(7.236 3.463)">
          <g id="Group_2635" transform="translate(0 0)">
            <path id="Path_1591" d="M14.833,5.106A11.742,11.742,0,0,0,12.727,3.55c-.153-.092-.336-.183-.519-.275h0a11.77,11.77,0,0,0-6.5-1.282A11.34,11.34,0,0,0,0,4.038,9.421,9.421,0,0,1,2.655,1.78,13.763,13.763,0,0,1,7.386.07a7.331,7.331,0,0,1,.855-.092A11.3,11.3,0,0,1,10.926.04a9.5,9.5,0,0,1,2.411.7A5.5,5.5,0,0,1,14.833,5.106Z" transform="translate(0 0.074)" fill="#c36c36"/>
          </g>
        </g>
        <g id="Group_2637" transform="translate(6.03 0)">
          <path id="Path_1592" d="M18.6,5.634a8.582,8.582,0,0,0-2.5-1.679,10.582,10.582,0,0,0-6.165-.7,13.82,13.82,0,0,0-4.853,1.74A9.373,9.373,0,0,0,2,7.8,10.586,10.586,0,0,1,5.724,2.857,13.3,13.3,0,0,1,12.286.018a6.113,6.113,0,0,1,5.1,1.526A5.375,5.375,0,0,1,18.6,5.634Z" transform="translate(-1.39 0.018)" fill="#c36c36"/>
          <path id="Path_1593" d="M0,30.931H0v0Z" transform="translate(0 -21.464)" fill="#c36c36"/>
        </g>
        <g id="Group_2639" transform="translate(12.183 8.867)">
          <g id="Group_2638" transform="translate(0 0)">
            <path id="Path_1594" d="M0,12.4a11.977,11.977,0,0,0,2.411-1.038,4.274,4.274,0,0,0,.488-.305h0A11.952,11.952,0,0,0,7.264,6.052,11.448,11.448,0,0,0,8.332.1a8.8,8.8,0,0,1,.61,3.418,13.119,13.119,0,0,1-.885,4.944,5.765,5.765,0,0,1-.336.763,10.97,10.97,0,0,1-1.4,2.289,8.835,8.835,0,0,1-1.8,1.74A5.446,5.446,0,0,1,0,12.4Z" transform="translate(0 -0.1)" fill="#c36c36"/>
          </g>
        </g>
        <g id="Group_2640" transform="translate(14.175 6.859)">
          <path id="Path_1595" d="M0,19.7a8.955,8.955,0,0,0,2.716-1.312A10.9,10.9,0,0,0,6.44,13.387a14.479,14.479,0,0,0,.916-5.1A9.494,9.494,0,0,0,6.47,4.2,10.427,10.427,0,0,1,8.851,9.938a13,13,0,0,1-.824,7.081C7.081,19,5.768,20.284,4.181,20.651A5.13,5.13,0,0,1,0,19.7Z" transform="translate(0 -2.918)" fill="#c36c36"/>
          <path id="Path_1596" d="M17.4,0h0c.031,0,.031.031,0,0Z" transform="translate(-12.089)" fill="#c36c36"/>
        </g>
        <g id="Group_2642" transform="translate(3.265 6.332)">
          <g id="Group_2641" transform="translate(0)">
            <path id="Path_1597" d="M2.922,0a10.717,10.717,0,0,0-.275,2.594V3.2A12.023,12.023,0,0,0,4.783,9.461a11.3,11.3,0,0,0,4.639,3.907,9.5,9.5,0,0,1-3.266-1.16A13.5,13.5,0,0,1,2.311,8.973c-.183-.214-.336-.458-.519-.671A11.713,11.713,0,0,1,.51,5.952,9.55,9.55,0,0,1-.1,3.51,5.375,5.375,0,0,1,2.922,0Z" transform="translate(0.1)" fill="#c36c36"/>
          </g>
        </g>
        <g id="Group_2643" transform="translate(0 6.811)">
          <path id="Path_1598" d="M3.023,0A9.138,9.138,0,0,0,2.81,3.022,10.774,10.774,0,0,0,5.282,8.729a14.2,14.2,0,0,0,3.937,3.327,9.644,9.644,0,0,0,3.968,1.282,10.429,10.429,0,0,1-6.135-.763A13.164,13.164,0,0,1,1.314,8.3,6.087,6.087,0,0,1,.093,3.144,5.235,5.235,0,0,1,3.023,0Z" transform="translate(0.085)" fill="#c36c36"/>
          <path id="Path_1599" d="M49.048,42.6Z" transform="translate(-34.036 -29.598)" fill="#c36c36"/>
        </g>
      </g>
      <g id="Group_2649" transform="translate(29.332 7.232)">
        <g id="Group_2646" transform="translate(0 0)">
          <g id="Group_2645">
            <path id="Path_1600" d="M4.914,1.753A11.665,11.665,0,0,0,2.838,1.6C1.312,1.6.458,2.425.458,3.4a1.051,1.051,0,0,0,.122.61c.061.122.122.122.183.061a.621.621,0,0,1,.458-.183.64.64,0,0,1,.58.671.629.629,0,0,1-.7.58C.7,5.141,0,4.836,0,3.554A2.518,2.518,0,0,1,1.19,1.479,5.059,5.059,0,0,1,3.968.868a24.678,24.678,0,0,1,2.625.214c.885.122,2.289.214,2.594.214.366,0,.733-.061.733-.4A.751.751,0,0,0,9.8.563.64.64,0,0,1,9.675.227.417.417,0,0,1,10.1-.2h.031c.336,0,.458.336.458.671a2.361,2.361,0,0,1-.244,1.038L8.241,6.515l.061.061C8.973,5.629,9.858,4.5,10.957,4.5c.61,0,.916.519.916,1.129a7.119,7.119,0,0,1-.916,3.113c-.549,1.007-1.251,1.77-2.014,1.77a.64.64,0,0,1-.671-.58c0-.305.214-.641.488-.641a.462.462,0,0,1,.458.4c0,.122.092.275.214.275.305,0,.733-.855.977-1.557A8.148,8.148,0,0,0,10.957,6c0-.336-.031-.763-.4-.763-.7,0-1.892,1.4-2.259,1.862a6.594,6.594,0,0,0-.885,1.557l-.549,1.373c-.031.092-.092.092-.183.092H6.1c-.092,0-.122-.031-.092-.061l3.052-7.6L9.248,2a2.016,2.016,0,0,1-.733.092,24.768,24.768,0,0,1-2.594-.214L3.846,8.468c-.275.855-.183,1.16.58,1.16h.519c.092,0,.122.061.092.122l-.061.244c0,.061-.031.092-.183.092-.183,0-.733-.031-2.014-.031-.977,0-1.679.031-1.831.031-.122,0-.122-.031-.122-.122l.031-.244c0-.061.031-.092.153-.092h.366c.794,0,1.038-.366,1.373-1.343Z" transform="translate(0 0.2)" fill="#1b254c"/>
            <path id="Path_1601" d="M39.8,19.66a5.4,5.4,0,0,1,1.709-3.479,2.9,2.9,0,0,1,1.8-.885.717.717,0,0,1,.763.671V16a2.1,2.1,0,0,1-1.251,1.74,5.33,5.33,0,0,1-1.953.549,4.23,4.23,0,0,0-.183,1.221.805.805,0,0,0,.7.855,1.974,1.974,0,0,0,1.526-.946c.031-.031.061-.061.122,0l.153.122a.064.064,0,0,1,0,.122A2.969,2.969,0,0,1,41.021,21C40.166,20.972,39.8,20.545,39.8,19.66Zm1.19-1.8c.458.031,2.228-.519,2.228-1.526,0-.275-.122-.519-.427-.519-.855.031-1.679,1.557-1.8,2.045Z" transform="translate(-27.653 -10.564)" fill="#1b254c"/>
          </g>
        </g>
        <g id="Group_2647" transform="translate(19.529 0.743)">
          <path id="Path_1602" d="M1.526,3.388c0-.58-.031-2.472-.061-2.625,0-.244-.183-.4-.549-.4H.153C.092.365.031.365.031.304V-.063C.031-.124.092-.124.122-.124H.641c.305,0,.763.031,1.4.031.214,0,4.914,0,5.128-.061.031.214.427,2.045.549,2.381,0,.061,0,.092-.031.092l-.244.092c-.031,0-.061,0-.092-.092A14.19,14.19,0,0,0,6.5,1.1a1.609,1.609,0,0,0-.946-.641C5.219.365,3.083.335,2.686.335V4.7c.183,0,1.587-.031,1.74-.061.305-.061.458-.183.58-.58.031-.122.092-.427.122-.671a.081.081,0,0,1,.092-.092h.275a.081.081,0,0,1,.092.092c-.031.214-.031,1.343-.031,1.526,0,.488.031,1.129.061,1.4a.081.081,0,0,1-.092.092l-.244.061a.081.081,0,0,1-.092-.092,3.423,3.423,0,0,0-.153-.671.616.616,0,0,0-.549-.519Q3.571,5.1,2.655,5.1V8.423c0,.366.061.427.519.427h.671c.092,0,.122.031.122.092v.336c0,.092-.031.092-.122.092-.122,0-.671-.031-1.831-.031-1.038,0-1.557.031-1.74.031a.081.081,0,0,1-.092-.092V8.911C.183,8.85.214,8.85.275,8.85h.61c.336,0,.458-.061.458-.305.031-.275.061-1.953.061-4.242Z" transform="translate(0 0.277)" fill="#1b254c"/>
          <path id="Path_1603" d="M35.432,17.375a2.985,2.985,0,0,1,.427-4.334,2.745,2.745,0,0,1,3.662.122,3.1,3.1,0,0,1,.916,2.167,3.018,3.018,0,0,1-2.961,2.93A2.6,2.6,0,0,1,35.432,17.375Zm3.876-2.167a2.293,2.293,0,0,0-1.77-2.411,1.243,1.243,0,0,0-1.038.427,2.678,2.678,0,0,0-.7,2.106,2.717,2.717,0,0,0,.519,1.862,1.455,1.455,0,0,0,1.312.7C38.637,17.894,39.309,16.642,39.309,15.208Z" transform="translate(-24.109 -8.615)" fill="#1b254c"/>
          <path id="Path_1604" d="M61.063,17.405c0,.214.122.275.305.275H61.8c.122,0,.153.031.153.122v.214c0,.092-.031.153-.122.153s-.519-.031-1.282-.031c-.671,0-1.1.031-1.19.031s-.122-.031-.122-.153V17.8c0-.092.031-.122.183-.122h.4c.153,0,.244-.061.275-.305,0-.336.031-.763.031-1.129v-1.77c0-.549,0-.916-.4-1.19a1.563,1.563,0,0,0-.977-.244,1.694,1.694,0,0,0-1.1.519,1.24,1.24,0,0,0-.305.916v2.777c0,.366.031.427.336.427h.336c.122,0,.122.031.122.122v.214c0,.092-.031.122-.092.122-.092,0-.458-.031-1.16-.031-.671,0-1.1.031-1.19.031-.061,0-.092-.031-.092-.122v-.244c0-.092.031-.122.122-.122h.4c.183,0,.275-.031.275-.275V14.292a.826.826,0,0,0-.549-.794l-.122-.061c-.092-.031-.122-.092-.122-.122v-.061c0-.061.061-.092.122-.122l1.16-.641a.347.347,0,0,1,.244-.092c.061,0,.092.061.122.153l.092.824h.031A2.733,2.733,0,0,1,59.2,12.4a2.1,2.1,0,0,1,1.129.305,1.9,1.9,0,0,1,.733,1.282v3.418Z" transform="translate(-38.63 -8.615)" fill="#1b254c"/>
          <path id="Path_1605" d="M78.032,17.375a2.985,2.985,0,0,1,.427-4.334,2.745,2.745,0,0,1,3.662.122,3.1,3.1,0,0,1,.916,2.167,3.018,3.018,0,0,1-2.961,2.93A2.641,2.641,0,0,1,78.032,17.375Zm3.876-2.167a2.293,2.293,0,0,0-1.77-2.411,1.243,1.243,0,0,0-1.038.427,2.678,2.678,0,0,0-.7,2.106,2.717,2.717,0,0,0,.519,1.862,1.455,1.455,0,0,0,1.312.7C81.268,17.894,81.909,16.642,81.909,15.208Z" transform="translate(-53.707 -8.615)" fill="#1b254c"/>
          <path id="Path_1606" d="M99.346,14.421c0-.671-.122-.824-.488-1.007l-.244-.122c-.092-.031-.122-.031-.122-.092v-.092c0-.061.031-.092.122-.122l1.312-.671a.434.434,0,0,1,.183-.061c.092,0,.092.092.092.153l.061.946h.061a2.292,2.292,0,0,1,1.618-1.16.593.593,0,0,1,.671.519v.061a.688.688,0,0,1-.549.671.671.671,0,0,1-.4-.122.681.681,0,0,0-.427-.092,1.055,1.055,0,0,0-.916.977v2.777c0,.427.092.549.366.549h.641c.092,0,.092.031.092.122V17.9c0,.092,0,.122-.061.122-.092,0-.7-.031-1.4-.031-.824,0-1.4.031-1.465.031s-.092-.031-.092-.122v-.214c0-.092.031-.122.153-.122h.519c.214,0,.305-.092.305-.244V15.7Z" transform="translate(-68.368 -8.47)" fill="#1b254c"/>
          <path id="Path_1607" d="M113.905,17.894c-.061-.031-.061-.122-.092-.183l-.214-1.282a.081.081,0,0,1,.092-.092l.183-.031c.061,0,.092,0,.122.092l.336.641c.275.488.458.824,1.16.824a.987.987,0,0,0,1.068-.916c0-.61-.305-.946-1.312-1.221-.794-.214-1.587-.641-1.587-1.709a1.751,1.751,0,0,1,1.862-1.618,2.753,2.753,0,0,1,1.221.275c.214.092.214.153.244.244l.214.946c0,.061-.031.122-.092.122l-.153.061c-.061,0-.092,0-.122-.061l-.458-.61a1,1,0,0,0-.946-.519.943.943,0,0,0-1.038.885c0,.763.641.916,1.282,1.1.977.275,1.587.671,1.618,1.709a1.83,1.83,0,0,1-2.045,1.77A2.591,2.591,0,0,1,113.905,17.894Z" transform="translate(-78.928 -8.615)" fill="#1b254c"/>
          <path id="Path_1608" d="M128.269,5.847a2.413,2.413,0,0,1-.763,2.075c-.031.061-.122.092-.183.122s-.122,0-.122-.061-.031-.061.061-.153a1.953,1.953,0,0,0,.427-1.373.487.487,0,0,0-.214-.275.728.728,0,0,1-.7-.519.488.488,0,0,1,.4-.58h.031A.956.956,0,0,1,128.269,5.847Z" transform="translate(-88.073 -3.527)" fill="#1b254c"/>
        </g>
        <g id="Group_2648" transform="translate(62.526 0.583)">
          <path id="Path_1609" d="M1.434,3.971c0-.58-.031-2.472-.031-2.625,0-.244-.183-.4-.549-.4H.092C.031.949,0,.949,0,.888V.522A.081.081,0,0,1,.092.431H.641c.305,0,.763.031,1.4.031.214,0,4.914,0,5.128-.061.031.214.427,2.045.549,2.381,0,.061,0,.092-.031.092l-.244.092c-.031,0-.061,0-.092-.092A14.19,14.19,0,0,0,6.5,1.651a1.609,1.609,0,0,0-.946-.641C5.219.919,3.083.888,2.686.888V5.253c.183,0,1.587-.031,1.74-.061.305-.061.458-.183.58-.58.031-.122.092-.427.122-.671a.081.081,0,0,1,.092-.092h.275a.081.081,0,0,1,.092.092c-.031.214-.031,1.343-.031,1.526,0,.488.031,1.129.061,1.4a.081.081,0,0,1-.092.092l-.244.061a.081.081,0,0,1-.092-.092,3.423,3.423,0,0,0-.153-.671.616.616,0,0,0-.549-.519Q3.571,5.65,2.655,5.65V8.976c0,.366.061.427.519.427h.671c.092,0,.122.031.122.092v.336c0,.092-.031.092-.122.092-.122,0-.671-.031-1.831-.031-1.038,0-1.557.031-1.74.031a.081.081,0,0,1-.092-.092V9.465C.183,9.4.214,9.4.275,9.4h.61c.336,0,.458-.061.458-.305.031-.275.061-1.953.061-4.242Z" transform="translate(0 -0.278)" fill="#1b254c"/>
          <path id="Path_1610" d="M27.633,16.269c0,.641,0,1.312.031,1.587.031.427.183.458.336.458a1.877,1.877,0,0,0,.427-.031c.092-.031.153,0,.153.061l.031.183c0,.092,0,.092-.061.122l-1.4.458a.891.891,0,0,1-.275.061c-.061,0-.092-.031-.122-.153l-.092-.763h-.031a2.469,2.469,0,0,1-1.831.946,1.442,1.442,0,0,1-1.251-.61c-.549-.7-.519-1.16-.519-2.625V14.407c0-.366-.214-.458-.519-.519-.214,0-.305-.031-.305-.092v-.244c0-.092.031-.092.153-.092h1.19a.387.387,0,0,0,.183-.031h.153c.061,0,.153.061.153.122v.031c0,.122-.061.763-.061,1.526v.916a3.418,3.418,0,0,0,.305,2.014,1.158,1.158,0,0,0,1.068.519,1.821,1.821,0,0,0,1.16-.671.533.533,0,0,0,.122-.366v-3.2c-.031-.366-.244-.427-.58-.458-.214,0-.305-.031-.305-.092v-.214c0-.092.031-.122.153-.122h1.251a.453.453,0,0,0,.214-.031h.153a.112.112,0,0,1,.122.122v.031a17.192,17.192,0,0,0-.092,1.77v.946Z" transform="translate(-15.424 -9.31)" fill="#1b254c"/>
          <path id="Path_1611" d="M50.563,17.905c0,.214.122.275.305.275H51.3c.122,0,.153.031.153.122v.214c0,.092-.031.153-.122.153s-.519-.031-1.282-.031c-.671,0-1.1.031-1.19.031s-.092-.031-.092-.153V18.3c0-.092.031-.122.183-.122h.4c.153,0,.244-.061.275-.305,0-.336.031-.763.031-1.129v-1.77c0-.549,0-.916-.4-1.19a1.563,1.563,0,0,0-.977-.244,1.694,1.694,0,0,0-1.1.519,1.24,1.24,0,0,0-.305.916v2.777c0,.366.031.427.336.427h.305c.122,0,.122.031.122.122v.214c0,.092-.031.122-.092.122-.092,0-.458-.031-1.16-.031-.671,0-1.1.031-1.19.031-.061,0-.092-.031-.092-.122v-.244c0-.092.031-.122.122-.122h.4c.183,0,.275-.031.275-.275V14.792A.826.826,0,0,0,45.344,14l-.092-.061c-.092-.031-.122-.092-.122-.122v-.061c0-.061.061-.092.122-.122l1.16-.641a.347.347,0,0,1,.244-.092c.061,0,.092.061.092.153l.092.824h.031A2.733,2.733,0,0,1,48.7,12.9a2.1,2.1,0,0,1,1.129.305,1.9,1.9,0,0,1,.732,1.282Z" transform="translate(-31.335 -8.963)" fill="#1b254c"/>
          <path id="Path_1612" d="M71.964,1.526c0-.519-.092-.671-.855-.794-.092,0-.092-.031-.092-.092V.427A.081.081,0,0,1,71.11.336c.519-.122,1.221-.214,1.465-.275A1.575,1.575,0,0,1,72.911,0c.061,0,.092.092.061.244-.031.671-.061,2.594-.061,4.3V7.508a3.9,3.9,0,0,0,.122,1.221.806.806,0,0,0,.58.214c.183,0,.244.031.275.092l.031.092c0,.092,0,.122-.092.153L72.3,9.8a.128.128,0,0,1-.183-.092L72,9.126a3.1,3.1,0,0,1-1.953.733,1.855,1.855,0,0,1-1.587-.61A2.7,2.7,0,0,1,67.6,7.081a3.234,3.234,0,0,1,.946-2.289,2.751,2.751,0,0,1,1.984-.855,4.54,4.54,0,0,1,1.434.214Zm0,4.242a1.153,1.153,0,0,0-.122-.641,1.455,1.455,0,0,0-1.4-.733,1.681,1.681,0,0,0-1.221.488,2.513,2.513,0,0,0-.61,1.77c0,1.526,1.038,2.625,1.831,2.625A1.623,1.623,0,0,0,71.9,8.546,1.225,1.225,0,0,0,72,8.088Z" transform="translate(-46.968)" fill="#1b254c"/>
        </g>
      </g>
    </g>
  </g>
</svg>
