<svg width="32" height="35" viewBox="0 0 32 35" fill="none" xmlns="http://www.w3.org/2000/svg">
<path d="M29.7403 12.2297C28.8756 11.4087 27.9285 10.6309 26.8991 10.0259C26.6932 9.89632 26.4462 9.76669 26.1991 9.63706C23.4815 8.16792 20.4344 7.51977 17.4285 7.82224C14.6697 8.03829 11.9932 9.03212 9.72852 10.7173C10.7168 9.42101 11.952 8.34076 13.3109 7.51977C15.2873 6.3099 17.4285 5.48891 19.6932 5.10002C20.0638 5.05681 20.4344 4.97039 20.8462 4.97039C22.0403 4.84076 23.2756 4.88397 24.4697 5.05681C25.5815 5.22965 26.6932 5.57533 27.7226 6.05064C29.1226 7.47656 29.8638 9.59385 29.7403 12.2297Z" fill="#C36C36"/>
<path d="M31.3238 7.99363C30.3356 6.9998 29.1827 6.17881 27.9474 5.61708C25.5179 4.45042 22.7179 4.10474 19.6297 4.62326C17.3238 5.01214 15.1003 5.83313 13.0827 7.08622C11.4356 8.08005 9.99442 9.41955 8.92383 11.0615C9.62383 8.64177 11.3944 6.17881 13.9474 4.06153C16.7062 1.81461 20.0003 0.302268 22.8003 0.0430084C25.765 -0.216251 28.1121 0.518317 29.6768 2.2035C30.9532 3.80227 31.5709 5.91955 31.3238 7.99363Z" fill="#C36C36"/>
<path d="M16.4023 29.96C17.5141 29.6143 18.6259 29.0958 19.6553 28.4908C19.8612 28.3612 20.1082 28.2316 20.3141 28.0587C22.867 26.3303 24.9259 23.8674 26.2023 20.9723C27.3965 18.3365 27.8906 15.4414 27.6435 12.5464C28.22 14.1019 28.5082 15.7439 28.467 17.3859C28.5082 19.7624 28.0965 22.139 27.2729 24.3859C27.1494 24.7748 26.9847 25.1205 26.82 25.4661C26.3259 26.6328 25.667 27.7131 24.9259 28.7069C24.2259 29.6575 23.4023 30.4785 22.4965 31.1698C20.6023 31.7748 18.5023 31.3427 16.4023 29.96Z" fill="#C36C36"/>
<path d="M19.0898 33.4682C20.4075 33.0793 21.6428 32.4312 22.7545 31.6102C24.9369 29.9682 26.6251 27.5917 27.7781 24.5238C28.6016 22.2336 29.0134 19.7707 29.0134 17.3077C29.0134 15.32 28.6428 13.3324 27.8193 11.5176C29.4663 13.4188 30.6193 16.2275 31.031 19.641C31.5251 23.2707 31.1134 27.0299 29.9193 29.6657C28.6428 32.4744 26.8722 34.2892 24.731 34.8077C22.7545 35.2398 20.6957 34.7645 19.0898 33.4682Z" fill="#C36C36"/>
<path d="M26.2539 9.70288C26.2951 9.70288 26.2951 9.7471 26.2539 9.70288V9.70288Z" fill="#C36C36"/>
<path d="M8.44756 8.95654C8.20051 10.1664 8.0358 11.4195 8.07698 12.6294C8.07698 12.8886 8.07698 13.1479 8.07698 13.4504C8.07698 13.4504 8.07698 13.4504 8.07698 13.4936C8.24168 16.6911 9.22992 19.759 10.9593 22.3516C12.524 24.7714 14.7064 26.6726 17.2182 27.8825C15.6534 27.6232 14.1711 27.0615 12.8123 26.2405C10.8358 25.0738 9.06521 23.5183 7.62403 21.6602C7.37698 21.3578 7.17109 21.0121 6.92403 20.7096C6.22403 19.6726 5.64756 18.5491 5.19462 17.3825C4.78286 16.259 4.49462 15.1356 4.37109 13.9257C4.82403 11.8516 6.22404 10.1664 8.44756 8.95654Z" fill="#C36C36"/>
<path d="M4.15883 9.63452C3.82942 11.0172 3.74707 12.4864 3.8706 13.9123C4.11766 16.7209 5.2706 19.4432 7.20589 21.9925C8.68824 23.8938 10.5 25.4925 12.5177 26.7024C14.1647 27.6963 15.9765 28.3444 17.8706 28.5172C15.5235 29.079 12.6 28.7333 9.59413 27.437C6.34119 26.0543 3.45883 23.8074 1.85295 21.3876C0.164716 18.8382 -0.411755 16.2888 0.205892 14.0851C0.864716 12.0543 2.30589 10.4555 4.15883 9.63452Z" fill="#C36C36"/>
</svg>
