<svg width="60" height="24" viewBox="0 0 60 24" fill="none" xmlns="http://www.w3.org/2000/svg">
<g id="ojc-icon 1" clip-path="url(#clip0_0_63)">
<path id="Path 28019" d="M43.6104 24C42.0204 24.0255 40.4414 23.7341 38.9676 23.143C37.4939 22.5519 36.1557 21.6734 35.0327 20.5597C33.9098 19.446 33.0251 18.1201 32.4316 16.661C31.838 15.2019 31.5477 13.6395 31.5779 12.067V12C31.5492 10.4079 31.8468 8.82645 32.4528 7.35113C33.0588 5.87582 33.9607 4.53715 35.1039 3.41583C36.2472 2.29452 37.6082 1.41378 39.1049 0.826716C40.6016 0.239656 42.2031 -0.041568 43.8127 0C45.5231 -0.0845951 47.2323 0.190772 48.8272 0.807905C50.422 1.42504 51.8663 2.36988 53.0646 3.58L49.7784 7.326C48.203 5.70884 46.0481 4.76862 43.7783 4.708C39.8237 4.708 36.9743 7.957 36.9743 11.934V12C36.9743 15.977 39.757 19.293 43.7783 19.293C46.4598 19.293 48.1019 18.233 49.9462 16.575L53.2314 19.857C52.0502 21.2237 50.5703 22.3068 48.9035 23.0246C47.2367 23.7423 45.4267 24.0759 43.6104 24Z" fill="var(--fill-0, #45A5FF)"/>
<path id="Path 28020" d="M42.1251 10.693V11.672H44.3425V12.591H42.1251V14.371H41.1028V9.771H44.6418V10.69L42.1251 10.693Z" fill="var(--fill-0, #263A61)"/>
<path id="Path 28021" d="M47.3951 14.444C47.1195 14.4709 46.8413 14.4361 46.5811 14.3421C46.321 14.2482 46.0856 14.0975 45.8924 13.9012C45.6992 13.7049 45.5531 13.4682 45.4651 13.2085C45.3771 12.9487 45.3494 12.6728 45.384 12.401V9.774H46.4062V12.374C46.4062 13.123 46.7844 13.511 47.4083 13.511C48.0322 13.511 48.4113 13.136 48.4113 12.411V9.774H49.4336V12.368C49.4691 12.6438 49.4413 12.9239 49.3524 13.1876C49.2634 13.4513 49.1155 13.6918 48.9197 13.8913C48.7238 14.0907 48.4851 14.244 48.2212 14.3397C47.9572 14.4353 47.6749 14.471 47.3951 14.444Z" fill="var(--fill-0, #263A61)"/>
<path id="Path 28022" d="M53.735 14.372L51.4832 11.449V14.372H50.472V9.772H51.4144L53.5924 12.603V9.774H54.6035V14.374L53.735 14.372Z" fill="var(--fill-0, #263A61)"/>
<path id="Path 28023" d="M57.5298 14.371H55.7168V9.771H57.5298C57.8462 9.75019 58.1637 9.79387 58.4624 9.89933C58.7611 10.0048 59.0347 10.1698 59.2663 10.3841C59.4978 10.5984 59.6825 10.8575 59.8087 11.1452C59.9349 11.433 60 11.7433 60 12.057V12.07C60.0006 12.3845 59.936 12.6957 59.8102 12.9845C59.6844 13.2733 59.5 13.5335 59.2685 13.7491C59.037 13.9646 58.7633 14.1309 58.4642 14.2377C58.1652 14.3445 57.8471 14.3906 57.5298 14.371ZM58.9312 12.07C58.9408 11.8855 58.9111 11.701 58.8441 11.5286C58.7771 11.3561 58.6742 11.1995 58.5421 11.0689C58.41 10.9382 58.2516 10.8365 58.0772 10.7702C57.9029 10.7039 57.7163 10.6745 57.5298 10.684H56.7401V13.455H57.5298C57.7156 13.4662 57.9016 13.4385 58.0759 13.3738C58.2501 13.3091 58.4086 13.2088 58.541 13.0794C58.6735 12.9501 58.7768 12.7946 58.8444 12.623C58.912 12.4515 58.9423 12.2679 58.9332 12.084L58.9312 12.07Z" fill="var(--fill-0, #263A61)"/>
<path id="Path 28024" opacity="0.9" d="M43.6104 24C42.0203 24.0254 40.4413 23.7338 38.9676 23.1426C37.4938 22.5514 36.1556 21.6728 35.0327 20.559C33.9097 19.4453 33.0251 18.1193 32.4316 16.6601C31.838 15.201 31.5477 13.6385 31.5779 12.066V12C31.5492 10.4079 31.8468 8.82645 32.4528 7.35113C33.0588 5.87582 33.9607 4.53715 35.1039 3.41583C36.2472 2.29452 37.6082 1.41378 39.1049 0.826716C40.6016 0.239656 42.2031 -0.041568 43.8127 0C45.5231 -0.0845951 47.2323 0.190772 48.8272 0.807905C50.422 1.42504 51.8663 2.36988 53.0646 3.58L49.7784 7.325C48.2028 5.70802 46.048 4.76783 43.7783 4.707C39.8237 4.707 36.9743 7.956 36.9743 11.933V12C36.9743 15.977 39.757 19.292 43.7783 19.292C46.4598 19.292 48.1019 18.233 49.9462 16.575L53.2314 19.856C52.0504 21.2229 50.5705 22.3063 48.9037 23.0242C47.2369 23.7422 45.4268 24.0758 43.6104 24Z" fill="url(#paint0_linear_0_63)"/>
<path id="Path 28025" d="M25.0773 23.767C23.614 23.8047 22.1615 23.5107 20.8309 22.9075C19.5003 22.3043 18.3269 21.4079 17.4007 20.287L20.6525 16.707C21.9933 18.166 23.2997 19.027 24.9428 19.027C26.8862 19.027 28.0925 17.867 28.0925 15.182V0.232H33.3909V15.414C33.3909 21.049 30.0389 23.768 25.0793 23.768" fill="var(--fill-0, #45A5FF)"/>
<path id="Path 28026" opacity="0.9" d="M25.0773 23.768C23.614 23.8057 22.1615 23.5117 20.8309 22.9085C19.5003 22.3053 18.3269 21.4089 17.4007 20.288L20.6505 16.706C21.9913 18.165 23.2977 19.026 24.9408 19.026C26.8842 19.026 28.0905 17.866 28.0905 15.181L33.3868 15.412C33.3868 21.047 30.0349 23.765 25.0752 23.765" fill="url(#paint1_linear_0_63)"/>
<path id="Path 28027" d="M12.437 23.998C10.8201 24.0535 9.20846 23.7856 7.69874 23.2103C6.18903 22.6351 4.81227 21.7643 3.65096 20.6503C2.48965 19.5362 1.5677 18.2017 0.94034 16.7269C0.312982 15.252 -0.00686724 13.6671 -4.27792e-05 12.067V11.998C-0.000790485 10.391 0.324825 8.80029 0.957485 7.32014C1.59015 5.83999 2.51696 4.50058 3.68295 3.38139C4.84894 2.26219 6.23035 1.38601 7.74522 0.804813C9.26009 0.223618 10.8776 -0.0507448 12.5017 -0.002C14.1187 -0.0573331 15.7304 0.210743 17.2402 0.786166C18.75 1.36159 20.1268 2.23251 21.2881 3.34676C22.4494 4.461 23.3713 5.79563 23.9986 7.27068C24.6259 8.74572 24.9457 10.3308 24.9387 11.931V11.998C24.9394 13.605 24.6138 15.1957 23.9812 16.6759C23.3485 18.156 22.4217 19.4954 21.2557 20.6146C20.0897 21.7338 18.7083 22.61 17.1934 23.1912C15.6786 23.7724 14.0611 24.0467 12.437 23.998ZM19.5433 11.998C19.5758 11.054 19.4162 10.1132 19.0739 9.23145C18.7316 8.34967 18.2137 7.5449 17.5509 6.86491C16.888 6.18493 16.0938 5.64361 15.2153 5.27309C14.3368 4.90257 13.392 4.7104 12.437 4.708C11.4887 4.70422 10.5495 4.89059 9.67604 5.25585C8.80263 5.62112 8.01314 6.15769 7.35528 6.83317C6.69742 7.50864 6.18484 8.30899 5.84851 9.18587C5.51217 10.0628 5.35906 10.998 5.39843 11.935V11.998C5.3655 12.9422 5.52481 13.8832 5.86689 14.7653C6.20897 15.6474 6.72685 16.4525 7.38975 17.1327C8.05265 17.8129 8.84705 18.3544 9.72574 18.725C10.6044 19.0956 11.5495 19.2877 12.5047 19.29C13.4529 19.2938 14.3921 19.1074 15.2654 18.7422C16.1387 18.377 16.9282 17.8405 17.586 17.1652C18.2439 16.4898 18.7565 15.6896 19.0929 14.8128C19.4293 13.9361 19.5825 13.001 19.5433 12.064V11.998Z" fill="var(--fill-0, #45A5FF)"/>
</g>
<defs>
<linearGradient id="paint0_linear_0_63" x1="31.5757" y1="11.9978" x2="53.2314" y2="11.9978" gradientUnits="userSpaceOnUse">
<stop offset="0.032" stop-color="#3456A5"/>
<stop offset="0.21" stop-color="#3456A5" stop-opacity="0"/>
</linearGradient>
<linearGradient id="paint1_linear_0_63" x1="18.9034" y1="16.2204" x2="26.3815" y2="25.5487" gradientUnits="userSpaceOnUse">
<stop offset="0.032" stop-color="#3456A5"/>
<stop offset="0.532" stop-color="#3456A5" stop-opacity="0"/>
</linearGradient>
<clipPath id="clip0_0_63">
<rect width="60" height="24" fill="white"/>
</clipPath>
</defs>
</svg>
