<svg xmlns="http://www.w3.org/2000/svg" xmlns:xlink="http://www.w3.org/1999/xlink" width="93.855" height="23.299" viewBox="0 0 93.855 23.299">
  <defs>
    <clipPath id="clip-path">
      <rect id="Rectangle_253" data-name="Rectangle 253" width="93.855" height="23.299"/>
    </clipPath>
    <clipPath id="clip-path-2">
      <rect id="Rectangle_234" data-name="Rectangle 234" width="93.975" height="23.419"/>
    </clipPath>
  </defs>
  <g id="logo_5_" data-name="logo (5)" transform="translate(0 -0.2)">
    <g id="Group_9089" data-name="Group 9089" transform="translate(0 0.2)" clip-path="url(#clip-path)">
      <g id="Group_9088" data-name="Group 9088" transform="translate(0 -0.12)">
        <g id="Group_9070" data-name="Group 9070" clip-path="url(#clip-path-2)">
          <path id="Path_28028" data-name="Path 28028" d="M15.312,1.8A8.669,8.669,0,0,0,7.746,6.3S1.561,16.872,1.321,17.292A2.373,2.373,0,0,1,0,18.493c.06.18.18.36.24.54H.6a1.18,1.18,0,0,0,1.021-.54l2.1-3.122H7.506A2.45,2.45,0,0,0,9.668,14.11L14.411,6A23.417,23.417,0,0,1,17.534,1.86H15.312Z" transform="translate(0 -0.719)" fill="#cfa477"/>
        </g>
        <g id="Group_9071" data-name="Group 9071" clip-path="url(#clip-path-2)">
          <path id="Path_28029" data-name="Path 28029" d="M37.844,4.322v7.446c.6.06,1.081.12,1.5.12a4.57,4.57,0,0,0,3.363-1.141,4.135,4.135,0,0,0,1.141-3.183,5.6,5.6,0,0,0-1.081-3.6,3.5,3.5,0,0,0-2.822-1.381,2.247,2.247,0,0,0-1.5.48,1.437,1.437,0,0,0-.6,1.261m1.741,14.171v.42H32.8v-.42a2.115,2.115,0,0,0,1.681-2.282V4.622A2.016,2.016,0,0,0,32.8,2.4V1.98a63.031,63.031,0,0,1,7.206-.48A9.193,9.193,0,0,1,45.47,3.061a4.6,4.6,0,0,1,2.1,3.963,5.236,5.236,0,0,1-1.141,3.423,6.848,6.848,0,0,1-2.822,2.1,10.441,10.441,0,0,1-3.663.661,8.22,8.22,0,0,1-2.042-.24v3.243a2.443,2.443,0,0,0,.48,1.441,1.789,1.789,0,0,0,1.2.841" transform="translate(-13.104 -0.599)" fill="#0f2135"/>
        </g>
        <g id="Group_9072" data-name="Group 9072" clip-path="url(#clip-path-2)">
          <path id="Path_28030" data-name="Path 28030" d="M60.524.2V15.933a1.976,1.976,0,0,0,1.321,2.042v.42H56.08v-.42a2.04,2.04,0,0,0,1.2-2.042V4.463a1.916,1.916,0,0,0-1.381-2.1v-.42A7.79,7.79,0,0,0,60.1.2h.42Z" transform="translate(-22.333 -0.08)" fill="#0f2135"/>
        </g>
        <g id="Group_9073" data-name="Group 9073" clip-path="url(#clip-path-2)">
          <path id="Path_28031" data-name="Path 28031" d="M70.144,11.441a1.97,1.97,0,0,0-1.561.841,4.424,4.424,0,0,0-.781,2.462h4.5a4.591,4.591,0,0,0-.54-2.4,1.906,1.906,0,0,0-1.621-.9m5.284,7.626a4.917,4.917,0,0,1-1.922,2.7,5.389,5.389,0,0,1-3.122,1.021,5.543,5.543,0,0,1-3.9-1.561A5.483,5.483,0,0,1,64.8,16.905a6.909,6.909,0,0,1,1.681-4.684A5.482,5.482,0,0,1,70.745,10.3a5.12,5.12,0,0,1,3.483,1.321A4.7,4.7,0,0,1,75.609,15.1v.6H67.8a5.786,5.786,0,0,0,1.141,3.663,3.606,3.606,0,0,0,2.882,1.261,3.838,3.838,0,0,0,3.3-1.8Z" transform="translate(-25.889 -4.115)" fill="#0f2135"/>
        </g>
        <g id="Group_9074" data-name="Group 9074" clip-path="url(#clip-path-2)">
          <path id="Path_28032" data-name="Path 28032" d="M89.805,16.773a3.37,3.37,0,0,0,2.1-.9V9.207a1.72,1.72,0,0,0-.48-1.261,1.64,1.64,0,0,0-1.321-.48,2.685,2.685,0,0,0-2.342,1.441,6.394,6.394,0,0,0-.9,3.483,5.636,5.636,0,0,0,.781,3.243,2.472,2.472,0,0,0,2.162,1.141m-1.861,1.982a4,4,0,0,1-3.122-1.5A5.794,5.794,0,0,1,83.5,13.471a7.141,7.141,0,0,1,1.861-4.984,5.9,5.9,0,0,1,4.624-2.1,6.358,6.358,0,0,1,1.861.3V4.463a1.977,1.977,0,0,0-1.561-2.1v-.42A7.792,7.792,0,0,0,94.549.2h.42V14.972a2.067,2.067,0,0,0,1.321,2.222v.42a10.761,10.761,0,0,0-4.023,1.261h-.42V16.713h-.06a5.991,5.991,0,0,1-1.8,1.381,3.6,3.6,0,0,1-2.042.661" transform="translate(-33.36 -0.08)" fill="#0f2135"/>
        </g>
        <g id="Group_9075" data-name="Group 9075" clip-path="url(#clip-path-2)">
          <path id="Path_28033" data-name="Path 28033" d="M108.844,11.141c-1.261,0-1.861.961-1.861,2.942a4.432,4.432,0,0,0,.48,2.162,1.473,1.473,0,0,0,1.381.781,1.564,1.564,0,0,0,1.441-.781,3.842,3.842,0,0,0,.54-2.162c-.06-1.982-.721-2.942-1.982-2.942m-3.122,13.15c0,.6.36,1.021,1.081,1.381a6.358,6.358,0,0,0,2.822.42,6.186,6.186,0,0,0,2.582-.48c.661-.3.961-.661.961-1.141a1.753,1.753,0,0,0-.12-.54.946.946,0,0,0-.42-.42l-.54-.36a3.536,3.536,0,0,0-.781-.3c-.36-.12-.661-.18-.841-.24s-.54-.12-.961-.24-.781-.18-.961-.24c-1.922.36-2.822,1.021-2.822,2.162m10.028-1.021a3.129,3.129,0,0,1-1.861,2.822,9.318,9.318,0,0,1-4.684,1.081c-.721,0-1.381-.06-2.042-.12a18.047,18.047,0,0,1-1.922-.42,4.067,4.067,0,0,1-1.5-.841,1.728,1.728,0,0,1-.54-1.261c0-.6.42-1.081,1.2-1.561a8.363,8.363,0,0,1,3.062-.961c-1.5-.42-2.4-1.021-2.762-1.861v-.3a9.4,9.4,0,0,0,3.243-1.861A5.331,5.331,0,0,1,105,16.666a3.3,3.3,0,0,1-1.141-2.522,3.446,3.446,0,0,1,1.441-2.762,5.455,5.455,0,0,1,3.543-1.141,5.834,5.834,0,0,1,3.663,1.2,3.341,3.341,0,0,1,2.7-1.741,1.364,1.364,0,0,1,.961.36,1.277,1.277,0,0,1,.42.9,1.222,1.222,0,0,1-.36.9,1.186,1.186,0,0,1-.841.36,1.743,1.743,0,0,1-.961-.36,1.453,1.453,0,0,0-.781-.36,1.1,1.1,0,0,0-.661.3,3.445,3.445,0,0,1,1.021,2.342,3.354,3.354,0,0,1-1.5,2.762,5.739,5.739,0,0,1-3.6,1.141h-.12a1.127,1.127,0,0,0-.42.781c0,.24.24.48.781.661s1.141.36,1.861.54,1.441.36,2.222.6a4.761,4.761,0,0,1,1.861,1.081,1.906,1.906,0,0,1,.661,1.561" transform="translate(-41.231 -3.875)" fill="#0f2135"/>
        </g>
        <g id="Group_9076" data-name="Group 9076" clip-path="url(#clip-path-2)">
          <path id="Path_28034" data-name="Path 28034" d="M128.744,11.441a1.97,1.97,0,0,0-1.561.841,4.424,4.424,0,0,0-.781,2.462h4.5a4.592,4.592,0,0,0-.54-2.4,1.906,1.906,0,0,0-1.621-.9m5.284,7.626a4.917,4.917,0,0,1-1.922,2.7,5.389,5.389,0,0,1-3.122,1.021,5.543,5.543,0,0,1-3.9-1.561,5.483,5.483,0,0,1-1.681-4.323,6.909,6.909,0,0,1,1.681-4.684,5.482,5.482,0,0,1,4.263-1.922,5.12,5.12,0,0,1,3.483,1.321,4.7,4.7,0,0,1,1.381,3.483v.6H126.4a5.786,5.786,0,0,0,1.141,3.663,3.606,3.606,0,0,0,2.882,1.261,3.838,3.838,0,0,0,3.3-1.8Z" transform="translate(-49.301 -4.115)" fill="#0f2135"/>
        </g>
        <g id="Group_9077" data-name="Group 9077" clip-path="url(#clip-path-2)">
          <path id="Path_28035" data-name="Path 28035" d="M145.064,11.421c0,.18-.06.54-.12,1.141l.12.06a5.391,5.391,0,0,1,1.441-1.681,2.884,2.884,0,0,1,1.8-.721,1.677,1.677,0,0,1,1.2.48,1.589,1.589,0,0,1,.48,1.261,1.545,1.545,0,0,1-1.441,1.621,1.935,1.935,0,0,1-1.2-.54,1.815,1.815,0,0,0-1.081-.54c-.3,0-.721.3-1.2.841v6.485a2.243,2.243,0,0,0,1.381,2.042v.42H140.5v-.42a2.183,2.183,0,0,0,1.381-2.042V14.3a3.216,3.216,0,0,0-.3-1.441A1.767,1.767,0,0,0,140.5,12.2v-.36a11.693,11.693,0,0,0,2.282-.6,6.15,6.15,0,0,0,1.861-1.141h.42v1.321Z" transform="translate(-56.133 -4.035)" fill="#0f2135"/>
        </g>
        <g id="Group_9078" data-name="Group 9078" clip-path="url(#clip-path-2)">
          <path id="Path_28036" data-name="Path 28036" d="M37.522,34.661c-.06-.06-.06-.12-.12-.18s-.12-.06-.18-.12c-.06,0-.12-.06-.24-.06a.762.762,0,0,0-.36.06.469.469,0,0,0-.24.24c-.06.12-.12.18-.12.3s-.06.24-.06.36a.762.762,0,0,0,.06.36.459.459,0,0,0,.12.3.469.469,0,0,0,.24.24.762.762,0,0,0,.36.06.62.62,0,0,0,.661-.661h.6a1.131,1.131,0,0,1-.12.48c-.06.12-.18.24-.24.36a1.256,1.256,0,0,1-.36.24,1.171,1.171,0,0,1-.48.06,1.777,1.777,0,0,1-.6-.12,1.077,1.077,0,0,1-.42-.3,1.307,1.307,0,0,1-.3-.48,1.561,1.561,0,0,1,0-1.2,1.307,1.307,0,0,1,.3-.48,1.077,1.077,0,0,1,.42-.3,1.776,1.776,0,0,1,.6-.12.89.89,0,0,1,.42.06l.36.18c.12.06.18.18.3.3a1.113,1.113,0,0,1,.12.42h-.6c-.06.12-.06.06-.12,0" transform="translate(-14.223 -13.464)" fill="#cfa477"/>
        </g>
        <g id="Group_9079" data-name="Group 9079" clip-path="url(#clip-path-2)">
          <path id="Path_28037" data-name="Path 28037" d="M43.661,34.1v1.081H44.8V34.1h.6v2.822h-.6v-1.2H43.661v1.2H43V34.1Z" transform="translate(-17.179 -13.624)" fill="#cfa477"/>
        </g>
        <g id="Group_9080" data-name="Group 9080" clip-path="url(#clip-path-2)">
          <path id="Path_28038" data-name="Path 28038" d="M51.5,35.841l-.36-1.081h0l-.42,1.081Zm-.06-1.741,1.081,2.882h-.661l-.18-.661H50.6l-.24.661H49.7L50.781,34.1Z" transform="translate(-19.856 -13.624)" fill="#cfa477"/>
        </g>
        <g id="Group_9081" data-name="Group 9081" clip-path="url(#clip-path-2)">
          <path id="Path_28039" data-name="Path 28039" d="M58.421,35.361a.459.459,0,0,0,.3-.12c.12,0,.12-.12.12-.3a.41.41,0,0,0-.42-.42H57.7V35.3h.721Zm.24-1.261a.762.762,0,0,1,.36.06.829.829,0,0,1,.24.18c.06.06.12.18.18.24a.541.541,0,0,1,.06.3.868.868,0,0,1-.12.42.615.615,0,0,1-.36.3h0c.06,0,.12.06.18.12s.12.12.12.18a.221.221,0,0,1,.06.18v.6a.221.221,0,0,0,.06.18.21.21,0,0,0,.06.12h-.661a.541.541,0,0,1-.06-.3.762.762,0,0,0-.06-.36.353.353,0,0,0-.12-.3c.06-.18-.06-.18-.24-.18H57.7v1.141h-.6V34.1h1.561Z" transform="translate(-22.813 -13.624)" fill="#cfa477"/>
        </g>
        <g id="Group_9082" data-name="Group 9082" clip-path="url(#clip-path-2)">
          <rect id="Rectangle_246" data-name="Rectangle 246" width="0.6" height="2.882" transform="translate(38.731 20.476)" fill="#cfa477"/>
        </g>
        <g id="Group_9083" data-name="Group 9083" clip-path="url(#clip-path-2)">
          <path id="Path_28040" data-name="Path 28040" d="M68.4,34.58V34.1h2.342v.48h-.9v2.342h-.6V34.58Z" transform="translate(-27.327 -13.624)" fill="#cfa477"/>
        </g>
        <g id="Group_9084" data-name="Group 9084" clip-path="url(#clip-path-2)">
          <path id="Path_28041" data-name="Path 28041" d="M75.741,35.8l-.36-1.081h0l-.36,1.081Zm0-1.741,1.081,2.882h-.661l-.24-.661H74.841l-.24.6H74L75.081,34h.661Z" transform="translate(-29.565 -13.584)" fill="#cfa477"/>
        </g>
        <g id="Group_9085" data-name="Group 9085" clip-path="url(#clip-path-2)">
          <path id="Path_28042" data-name="Path 28042" d="M82.661,36.442h.18a.21.21,0,0,0,.12-.06c.06,0,.06-.06.12-.12,0-.06.06-.12.06-.18a.41.41,0,0,0-.42-.42h-.661v.781Zm-.06-1.2a.541.541,0,0,0,.3-.06.312.312,0,0,0,.12-.24.221.221,0,0,0-.06-.18c0-.06-.06-.06-.12-.12-.06,0-.06-.06-.12-.06H81.94v.661Zm.12-1.141a.762.762,0,0,1,.36.06c.12,0,.18.06.3.12a.829.829,0,0,1,.18.24.65.65,0,0,1,.06.36.853.853,0,0,1-.12.36.6.6,0,0,1-.3.24.968.968,0,0,1,.42.24,1.131,1.131,0,0,1,.12.48.762.762,0,0,1-.06.36.469.469,0,0,1-.24.24c-.12.06-.18.12-.3.12a.762.762,0,0,1-.36.06H81.4V34.1Z" transform="translate(-32.521 -13.624)" fill="#cfa477"/>
        </g>
        <g id="Group_9086" data-name="Group 9086" clip-path="url(#clip-path-2)">
          <path id="Path_28043" data-name="Path 28043" d="M88.961,34.1v2.342h1.381v.48H88.3V34.1Z" transform="translate(-35.278 -13.624)" fill="#cfa477"/>
        </g>
        <g id="Group_9087" data-name="Group 9087" clip-path="url(#clip-path-2)">
          <path id="Path_28044" data-name="Path 28044" d="M96.7,34.1v.48H95.2v.661h1.381v.48H95.2v.721h1.561v.48H94.6V34.1Z" transform="translate(-37.795 -13.624)" fill="#cfa477"/>
        </g>
      </g>
    </g>
  </g>
</svg>
